<svg id="Capa_1" enable-background="new 0 0 512 512" height="512" viewBox="0 0 512 512" width="512" xmlns="http://www.w3.org/2000/svg"><g><g><path d="m473.42 50s-42.776-16.67-74.185 35c0 0-40.1 4-72.681 45 0 0-46.616 95-211.026 164.33l-63.528 60.94c-3.388 3.25-8.702 3.39-12.251.33-2.075-1.78-3.158-4.31-3.158-6.88 0-1.75.511-3.52 1.554-5.07l23.919-35.32-26.064.67s22.25-32 46.115-54.67c0 0 81.202-215 212.359-217.83 38.726-.84 65.329-26.5 106.265-26.5 73.012 0 72.681 40 72.681 40z" fill="#a0e5a5"/><path d="m442.843 106.5-2.995-11.5s-25.848 2.667-40.614-10c31.408-51.67 74.185-35 74.185-35 13.534 50-30.576 56.5-30.576 56.5z" fill="#ff7b79"/><g fill="#d0f2d2"><path d="m191.768 256c-3.459 39.5-30.626 60.5-30.626 60.5-11.028 86-66.666 185.5-66.666 185.5h-12.532c51.127-159.5 48.721-214.27 48.721-214.27 22.717-10.24 43.008-20.94 61.103-31.73z"/><path d="m247.527 259.67-6.015 12.66c-39.438-1-49.744-16.33-49.744-16.33 27.298-16.28 49.594-32.77 67.608-48.21 1.153 31.79-11.849 51.88-11.849 51.88z"/></g></g><g><path d="m483.359 48.538c-.123-1.74-.495-4.526-1.561-8.018-.92-3.06-2.78-7.78-6.45-12.91-3.75-5.23-8.579-9.78-14.359-13.52-14.361-9.35-34.62-14.09-60.219-14.09h-.03c-22.84 0-41.31 7.24-57.619 13.63l-.08.03c-17 6.7-31.679 12.49-48.779 12.84-32.299.7-64.218 13.38-94.868 37.68-2.09 1.66-3.42 4.03-3.719 6.68-.31 2.66.43 5.27 2.09 7.37 1.91 2.4 4.77 3.79 7.85 3.79 2.27 0 4.41-.75 6.2-2.17 26.388-20.88 53.406-32.072 80.362-33.266 7.61 4.446 36.67 25.376 24.89 79.975-3.175 5.828-15.97 27.522-44.414 55.512-29.206 28.728-64.72 54.415-106 76.736 27.683-30.602 60.107-74.609 72.17-122.882 1.339-5.358-1.919-10.787-7.277-12.126-5.361-1.34-10.786 1.919-12.126 7.277-20.338 81.385-107.584 153.364-110.108 155.427-.247.194-.484.397-.705.608l-57.348 55.02 19.099-28.19c2.07-3.07 2.27-7.16.49-10.41-1.8-3.28-5.28-5.31-9.03-5.2l-5.51.15c8.07-10.35 20.279-25.12 32.699-36.9.003-.003.006-.007.009-.01.012-.012.026-.022.039-.034l31.741-30.54c3.98-3.829 4.102-10.16.273-14.14-2.63-2.734-6.441-3.647-9.859-2.71 12.926-25.71 26.982-49.315 41.826-70.187 3.19-4.49 2.13-10.75-2.36-13.94-1.71-1.21-3.71-1.85-5.79-1.85-3.23 0-6.28 1.57-8.16 4.21-15.569 21.93-30.259 46.61-43.669 73.34-10.48 20.89-17.089 36.97-19.45 42.92-21.219 20.6-40.249 46.78-45.569 54.32-.14.19-.23.32-.24.33-2.17 3.11-2.39 7.12-.59 10.46 1.79 3.31 5.27 5.37 9.06 5.25l6.62-.17-13.01 19.21-.02.03c-2.13 3.17-3.26 6.85-3.26 10.65-.01 5.57 2.41 10.84 6.65 14.47 3.45 2.98 7.87 4.61 12.42 4.61h.06c4.94 0 9.63-1.88 13.2-5.31l60.761-58.292c-2.659 26.017-12.331 85.778-47.26 194.749-.975 3.042-.438 6.366 1.444 8.947 1.883 2.58 4.885 4.106 8.078 4.106h12.531c3.621 0 6.96-1.958 8.728-5.12 2.277-4.071 55.141-99.362 67.342-185.317 6.698-6.225 21.709-22.485 28.332-48.111 5.72 2.796 13.325 5.435 23.279 7.109-3.765 8.161-3.506 15.608-2.153 19.927 1.339 4.276 5.284 7.014 9.54 7.014.99 0 1.997-.148 2.992-.459 5.27-1.651 8.204-7.261 6.554-12.532-.016-.05-.767-4.64 4.629-10.628 3.237 1.931 7.888 5.941 11.682 14.088 1.695 3.642 5.304 5.782 9.072 5.782 1.413 0 2.849-.301 4.214-.937 5.007-2.331 7.176-8.28 4.845-13.286-3.104-6.667-6.738-11.704-10.4-15.51 7.566-.042 13.804 3.225 14.289 3.487 4.813 2.655 10.872.927 13.558-3.876 2.695-4.82.972-10.913-3.849-13.608-.737-.412-11.875-6.482-25.717-6.021 3.714-9.141 7.943-23.526 8.024-41.711 5.274-4.623 10.37-9.315 15.27-14.07 33.619-32.61 47.789-58.01 50.289-62.76 12.349-15.31 27.189-26.8 44.098-34.16 6.62-2.88 17.004-5.613 17.583-5.732 11.692 7.849 26.288 9.532 35.502 9.687l.98 3.765c1.161 4.458 5.183 7.481 9.668 7.481.484 0 .975-.035 1.467-.108.902-.133 22.229-3.464 34.1-21.58 8.052-12.29 9.707-27.859 4.959-46.276zm-328.327 260.05c-2.098 1.622-3.466 4.01-3.803 6.64-6.254 48.778-27.569 102.685-44.201 139.056 27.912-95.899 32.759-143.51 33.528-160.075 0-.001 0-.003 0-.004 12.61-5.831 24.836-11.976 36.647-18.405.001.001.003.002.005.003-7.766 21.209-22.019 32.661-22.176 32.785zm84.079-54.313c-.227.354-.432.723-.612 1.104l-3.155 6.641c-11.684-.862-19.848-3.141-25.372-5.476 3.338-2.118 6.641-4.256 9.893-6.423 9.849-6.566 19.312-13.37 28.361-20.372-3.299 12.962-8.956 24.271-9.115 24.526zm154.069-178.405c-4.88.98-12.67 3.01-22.049 7.08-8.85 3.84-17.399 8.78-25.399 14.67-2.002 1.473-3.958 3.022-5.889 4.613.014-24.116-7.529-40.945-15.052-51.71-1.922-2.75-3.905-5.209-5.881-7.409 1.403-.349 2.814-.719 4.242-1.123 8.79-2.5 18.169-6.18 26.089-9.28 17.63-6.931 33.719-12.711 51.469-12.711h.05c15.35 0 28.289 1.87 38.459 5.55 8.25 3.03 14.29 6.92 18.459 11.89-.24 0-.49 0-.73 0h-.07c-7.73 0-19.58 1.42-32.129 8.2-11.979 6.45-22.599 16.62-31.569 30.23zm68.582 7.843c-3.2 4.958-8.016 7.462-12.073 9.401-1.157-4.442-5.847-8.088-10.352-8.088-.173.017-14.63 1.29-25.921-3.15 0-.006.001-.011.001-.017 6.256-8.303 13.125-14.442 20.831-18.62 7.12-3.84 14.759-5.79 22.699-5.81 3.237 0 6.008.339 8.092.714 1.984 10.533.888 19.117-3.277 25.57z"/><circle cx="172.945" cy="102.232" r="10"/></g></g></svg>